<?xml version="1.0"?>
<svg version="1.1" xmlns="http://www.w3.org/2000/svg" width="247px" height="40px" style=""><path fill="#325ec7" d="M50.68505859375,28.490234375q0-0.50537109375,0.050537109375-1.207275390625t0.230224609375-1.162353515625q0.0673828125-0.1572265625,0.286376953125-0.308837890625t0.46044921875-0.185302734375t0.4267578125,0.05615234375t0.185302734375,0.39306640625q0,0.52783203125-0.0224609375,1.33642578125l0,0.34814453125q0,0.61767578125,0.05615234375,1.17919921875q0.07861328125,0.7412109375,0.3369140625,1.24658203125q0.224609375,0.46044921875,0.70751953125,0.46044921875l0.08984375,0q0.66259765625-0.044921875,0.97705078125-0.55029296875t0.4267578125-1.20166015625q0.10107421875-0.64013671875,0.10107421875-1.34765625l0-0.134765625q-0.01123046875-0.7861328125-0.01123046875-1.38134765625q0-2.36962890625-0.1572265625-4.75048828125t-0.1572265625-4.77294921875q0-0.39306640625-0.03369140625-0.853515625q-0.01123046875-0.16845703125-0.01123046875-0.3369140625q0-0.26953125,0.03369140625-0.5166015625q0.05615234375-0.39306640625,0.286376953125-0.656982421875t0.780517578125-0.263916015625q0.30322265625,0,0.555908203125,0.072998046875t0.454833984375,0.297607421875q0.25830078125,2.919921875,0.4267578125,5.935302734375t0.16845703125,5.957763671875q0,1.0107421875-0.16845703125,2.03271484375t-0.61767578125,1.841796875t-1.24658203125,1.33642578125t-2.03271484375,0.5166015625q-0.7412109375,0-1.2353515625-0.263916015625t-0.791748046875-0.724365234375t-0.4267578125-1.072509765625t-0.129150390625-1.319580078125z M59.632036132813,28.53515625l0-1.0556640625q0-0.57275390625,0.028076171875-1.622802734375t0.072998046875-2.30224609375t0.12353515625-2.611083984375t0.1796875-2.566162109375t0.241455078125-2.161865234375t0.320068359375-1.4150390625q0.1123046875-0.25830078125,0.37060546875-0.32568359375t0.50537109375-0.0673828125q0.39306640625,0,0.690673828125,0.174072265625t0.297607421875,0.634521484375l-0.2021484375,0.224609375q-0.39306640625,2.59423828125-0.50537109375,5.2109375t-0.1572265625,5.2333984375q0.28076171875-0.43798828125,0.634521484375-0.859130859375t0.7861328125-0.746826171875t0.93212890625-0.522216796875t1.094970703125-0.196533203125q0.763671875,0,1.263427734375,0.46044921875t0.825439453125,1.196044921875t0.48291015625,1.645263671875t0.241455078125,1.8193359375t0.117919921875,1.723876953125t0.10107421875,1.353271484375q-0.21337890625,0.2919921875-0.62890625,0.2919921875l-0.03369140625,0q-0.1796875,0-0.39306640625-0.044921875t-0.28076171875-0.224609375l0.0224609375,0.0224609375q-0.1572265625-0.34814453125-0.21337890625-1.005126953125t-0.08984375-1.44873046875t-0.117919921875-1.622802734375t-0.252685546875-1.5048828125t-0.494140625-1.11181640625t-0.8759765625-0.46044921875l-0.0673828125,0q-0.66259765625,0-1.11181640625,0.404296875q-0.4716796875,0.4267578125-0.763671875,1.123046875t-0.44921875,1.5498046875t-0.241455078125,1.645263671875t-0.129150390625,1.4375t-0.1123046875,0.948974609375q-0.0673828125,0.25830078125-0.398681640625,0.342529296875t-0.567138671875,0.084228515625q-0.55029296875,0-0.8984375-0.314453125q-0.25830078125-0.61767578125-0.30322265625-1.53857421875t-0.044921875-1.796875z M70.151279296875,27.5244140625q0-0.64013671875,0.162841796875-1.319580078125t0.5166015625-1.22412109375t0.892822265625-0.88720703125t1.302734375-0.342529296875q0.57275390625,0,1.207275390625,0.196533203125t1.162353515625,0.5615234375t0.859130859375,0.892822265625t0.331298828125,1.17919921875q0,0.7861328125-0.286376953125,1.49365234375t-0.802978515625,1.263427734375t-1.207275390625,0.8759765625t-1.499267578125,0.320068359375q-0.66259765625,0-1.15673828125-0.241455078125t-0.825439453125-0.645751953125t-0.494140625-0.95458984375t-0.162841796875-1.16796875z M71.802158203125,27.501953125q0,0.2021484375,0.061767578125,0.59521484375t0.185302734375,0.769287109375t0.320068359375,0.6513671875t0.477294921875,0.252685546875q0.59521484375-0.0673828125,0.982666015625-0.387451171875t0.62890625-0.780517578125t0.3369140625-0.99951171875t0.095458984375-1.02197265625q0-0.61767578125-0.241455078125-1.033203125t-0.791748046875-0.673828125q0,0.0224609375,0.0224609375,0.0224609375t0.0224609375-0.0224609375l-0.28076171875-0.0673828125q-0.1123046875-0.044921875-0.275146484375-0.10107421875t-0.320068359375-0.2470703125q-0.43798828125,0.1572265625-0.679443359375,0.404296875t-0.364990234375,0.600830078125t-0.151611328125,0.847900390625t-0.028076171875,1.1904296875z M78.671499023437,27.3671875l0-0.32568359375q0-0.404296875,0.0224609375-0.763671875q0.0224609375-0.50537109375,0.0224609375-0.8310546875q0-0.1796875,0.0224609375-0.409912109375t0.1123046875-0.364990234375q0.1123046875-0.1123046875,0.263916015625-0.230224609375t0.331298828125-0.117919921875q0.57275390625,0,0.8984375,0.129150390625t0.34814453125,0.533447265625l0.044921875,0.34814453125q0.2021484375-0.48291015625,0.5390625-1.196044921875t0.780517578125-1.35888671875t0.99951171875-1.1005859375t1.173583984375-0.454833984375q0.57275390625,0,0.943359375,0.5390625t0.589599609375,1.375732421875t0.308837890625,1.8642578125t0.12353515625,2.015869140625t0.044921875,1.802490234375t0.07861328125,1.229736328125q0.044921875,0.34814453125,0.151611328125,0.735595703125t0.106689453125,0.713134765625q0,0.08984375-0.129150390625,0.174072265625t-0.275146484375,0.140380859375t-0.297607421875,0.08984375t-0.218994140625,0.03369140625q-0.43798828125,0-0.623291015625-0.656982421875t-0.230224609375-1.645263671875t-0.044921875-2.139404296875t-0.07861328125-2.139404296875t-0.320068359375-1.645263671875t-0.769287109375-0.679443359375q-0.48291015625,0-0.99951171875,0.623291015625t-0.88720703125,1.656494140625q-0.359375,1.033203125-0.494140625,2.34716796875q-0.044921875,0.41552734375-0.044921875,0.8310546875q0,0.90966796875,0.19091796875,1.8193359375q0.0224609375,0.1572265625-0.129150390625,0.23583984375t-0.376220703125,0.12353515625t-0.454833984375,0.05615234375t-0.353759765625,0.01123046875q-0.43798828125,0-0.701904296875-0.308837890625t-0.409912109375-0.791748046875t-0.196533203125-1.083740234375t-0.061767578125-1.184814453125z M88.8762890625,27.771484375q0-0.7861328125,0.174072265625-1.85302734375t0.589599609375-2.021484375t1.094970703125-1.622802734375t1.712646484375-0.668212890625q0.9658203125,0,1.44873046875,0.555908203125t0.48291015625,1.499267578125q0,0.61767578125-0.230224609375,1.353271484375t-0.656982421875,1.392578125t-1.0107421875,1.094970703125t-1.302734375,0.43798828125l-0.2919921875-0.0224609375q0,0.30322265625,0.08984375,0.814208984375t0.263916015625,1.016357421875t0.44921875,0.88720703125t0.668212890625,0.3818359375q0.57275390625,0,1.1005859375-0.46044921875t0.99951171875-1.02197265625t0.8759765625-1.02197265625t0.7412109375-0.46044921875q0.1796875,0,0.37060546875,0.05615234375t0.21337890625,0.314453125q0,0.1572265625-0.084228515625,0.25830078125t-0.151611328125,0.224609375q-0.34814453125,0.59521484375-0.758056640625,1.13427734375t-0.926513671875,0.97705078125t-1.128662109375,0.690673828125t-1.353271484375,0.252685546875q-0.9658203125,0-1.60595703125-0.342529296875t-1.033203125-0.9208984375t-0.567138671875-1.33642578125t-0.174072265625-1.589111328125z M90.88654296875,26.91796875l0.314453125,0.28076171875q0.224609375,0.2021484375,0.44921875,0.08984375t0.404296875-0.409912109375t0.331298828125-0.735595703125t0.26953125-0.8984375t0.174072265625-0.8984375t0.05615234375-0.72998046875l0-0.3818359375t-0.03369140625-0.404296875t-0.117919921875-0.320068359375t-0.263916015625-0.162841796875q-0.05615234375-0.01123046875-0.10107421875-0.01123046875q-0.3818359375,0-0.6513671875,0.48291015625q-0.2919921875,0.5390625-0.4716796875,1.308349609375t-0.25830078125,1.577880859375t-0.10107421875,1.212890625z M98.261254882813,24.16650390625q0-0.46044921875,0.162841796875-0.77490234375t0.690673828125-0.314453125q0.2021484375,0,0.50537109375,0.061767578125t0.34814453125,0.308837890625q0.1123046875,0.66259765625,0.12353515625,1.4375t0.07861328125,1.4599609375q0.25830078125-0.50537109375,0.66259765625-1.08935546875t0.9208984375-1.078125t1.123046875-0.81982421875t1.2353515625-0.32568359375q0.044921875,0,0.16845703125,0.03369140625t0.230224609375,0.095458984375t0.129150390625,0.140380859375t-0.12353515625,0.14599609375q-0.044921875,0.134765625-0.19091796875,0.162841796875t-0.25830078125,0.028076171875q-0.0673828125,0-0.21337890625-0.05615234375q-0.8310546875,0.43798828125-1.4150390625,1.1904296875t-0.95458984375,1.667724609375t-0.5390625,1.931640625t-0.16845703125,1.982177734375q0,0.48291015625-0.218994140625,0.583984375t-0.701904296875,0.10107421875q-0.25830078125,0-0.544677734375-0.05615234375t-0.398681640625-0.359375q-0.2021484375-0.64013671875-0.331298828125-1.47119140625t-0.196533203125-1.712646484375t-0.095458984375-1.735107421875t-0.028076171875-1.53857421875z M106.24241210938,27.04150390625q0-1.033203125,0.241455078125-2.027099609375t0.409912109375-1.982177734375q0.044921875-0.25830078125,0.353759765625-0.320068359375t0.522216796875-0.061767578125q0.37060546875,0,0.59521484375,0.1123046875q0.08984375,0.044921875,0.16845703125,0.10107421875t0.07861328125,0.14599609375q0,0.9658203125-0.230224609375,1.88671875t-0.230224609375,1.9541015625q0,0.34814453125,0.050537109375,0.656982421875t0.095458984375,0.612060546875l0.0673828125,0.32568359375q0,0.08984375,0.01123046875,0.1572265625t0.03369140625,0.1572265625q0,0.2021484375-0.286376953125,0.275146484375t-0.499755859375,0.072998046875q-0.32568359375,0-0.600830078125-0.129150390625t-0.432373046875-0.443603515625l-0.1572265625-0.32568359375q-0.134765625-0.25830078125-0.134765625-0.578369140625t-0.05615234375-0.589599609375z M106.96116210938,20.28076171875l0-0.21337890625q0-0.52783203125,0.263916015625-0.943359375t0.791748046875-0.41552734375q0.0673828125,0,0.129150390625,0.01123046875t0.129150390625,0.01123046875q0.134765625,0.0224609375,0.353759765625,0.106689453125t0.218994140625,0.263916015625l0,0.0224609375q-0.044921875,0.08984375-0.05615234375,0.185302734375t-0.05615234375,0.162841796875l0.0224609375-0.0224609375q-0.134765625,0.34814453125-0.218994140625,0.5615234375t-0.185302734375,0.342529296875t-0.252685546875,0.185302734375t-0.432373046875,0.05615234375q-0.044921875,0-0.1572265625-0.01123046875t-0.241455078125-0.044921875t-0.218994140625-0.08984375t-0.08984375-0.16845703125z M111.14642089844,31.2978515625q0-0.32568359375,0.028076171875-0.68505859375t0.050537109375-0.673828125l0.0673828125-1.6845703125q0.1123046875-2.021484375,0.275146484375-3.9755859375t0.275146484375-3.953125q0.0673828125-1.1005859375,0.10107421875-2.161865234375t0.10107421875-2.161865234375q-0.044921875-0.08984375-0.044921875-0.12353515625q0-0.1572265625,0.117919921875-0.2470703125t0.275146484375-0.151611328125t0.331298828125-0.084228515625t0.263916015625-0.0224609375l0.25830078125,0q0.34814453125,0.044921875,0.50537109375,0.218994140625t0.2021484375,0.41552734375t0.0224609375,0.5166015625t-0.0224609375,0.510986328125q0,1.62841796875-0.07861328125,3.318603515625t-0.1796875,3.3916015625t-0.185302734375,3.40283203125t-0.084228515625,3.363525390625l0,0.7861328125q0,0.52783203125-0.297607421875,0.6962890625t-0.825439453125,0.16845703125q-0.46044921875,0-0.80859375-0.2021484375t-0.34814453125-0.66259765625z M120.62875488281,17.995361328125q-0.0224609375-0.297607421875,0.050537109375-0.5615234375t0.275146484375-0.43798828125t0.68505859375-0.174072265625q0.1123046875,0,0.275146484375,0.0224609375t0.32568359375,0.072998046875t0.263916015625,0.140380859375t0.10107421875,0.2470703125q0,0.41552734375,0.028076171875,1.094970703125t0.072998046875,1.4150390625t0.084228515625,1.4375t0.072998046875,1.139892578125q0.8759765625-0.044921875,1.76318359375-0.044921875t1.751953125-0.044921875l1.5498046875-0.044921875l0-1.11181640625q0-1.8642578125-0.072998046875-3.734130859375t-0.252685546875-3.734130859375q0-0.134765625,0.1123046875-0.218994140625t0.263916015625-0.129150390625t0.314453125-0.05615234375t0.252685546875-0.01123046875q0.25830078125,0,0.555908203125,0.07861328125t0.342529296875,0.3369140625l0.0673828125,0.48291015625q0.28076171875,2.021484375,0.3818359375,3.998046875t0.14599609375,3.953125q0.134765625,0.0224609375,0.286376953125,0.072998046875t0.308837890625,0.095458984375q0.1123046875,0.044921875,0.320068359375,0.134765625t0.207763671875,0.28076171875q0,0.1796875-0.1572265625,0.28076171875t-0.353759765625,0.151611328125t-0.3818359375,0.061767578125t-0.230224609375,0.01123046875q0.0224609375,0.8310546875,0.0224609375,1.656494140625l0,1.656494140625l0,3.62744140625l0,2.021484375q0,0.134765625-0.129150390625,0.241455078125t-0.308837890625,0.174072265625t-0.376220703125,0.08984375t-0.353759765625,0.0224609375t-0.37060546875-0.0224609375t-0.3818359375-0.08984375t-0.297607421875-0.16845703125t-0.129150390625-0.2470703125l0-0.48291015625q0.044921875-2.1337890625,0.10107421875-4.228271484375t0.1123046875-4.205810546875q-1.22412109375,0.044921875-2.487548828125,0.05615234375t-2.510009765625,0.05615234375q0.134765625,1.58349609375,0.308837890625,3.161376953125t0.364990234375,3.161376953125q0,0.134765625-0.129150390625,0.241455078125t-0.30322265625,0.174072265625t-0.37060546875,0.08984375t-0.353759765625,0.0224609375q-0.32568359375,0-0.713134765625-0.1123046875t-0.432373046875-0.41552734375q-0.134765625-1.1904296875-0.252685546875-2.6279296875t-0.207763671875-2.936767578125t-0.140380859375-2.936767578125t-0.050537109375-2.60546875q0-0.28076171875-0.0224609375-0.578369140625z M133.46147460937,27.31103515625q0-0.763671875,0.207763671875-1.47119140625t0.623291015625-1.263427734375t1.038818359375-0.88720703125t1.443115234375-0.331298828125q0.50537109375,0,1.117431640625,0.151611328125t1.151123046875,0.44921875t0.8984375,0.758056640625t0.359375,1.0556640625q0,0.28076171875-0.095458984375,0.4267578125t-0.387451171875,0.14599609375l-0.12353515625-0.0224609375q0.32568359375,0.8759765625,0.5615234375,1.796875t0.46044921875,1.841796875q0.08984375,0.1796875,0.134765625,0.320068359375t0.044921875,0.275146484375q0,0.1796875-0.10107421875,0.297607421875t-0.263916015625,0.174072265625t-0.3369140625,0.07861328125t-0.308837890625,0.0224609375q-0.48291015625,0-0.724365234375-0.16845703125t-0.34814453125-0.46044921875t-0.129150390625-0.656982421875t-0.08984375-0.735595703125q-0.134765625,0.43798828125-0.353759765625,0.853515625t-0.5166015625,0.746826171875t-0.701904296875,0.52783203125t-0.90966796875,0.196533203125q-0.7412109375,0-1.24658203125-0.4267578125t-0.814208984375-1.050048828125t-0.44921875-1.330810546875t-0.140380859375-1.31396484375z M135.05620117187,27.15380859375q0,0.41552734375,0.05615234375,0.8759765625t0.185302734375,0.90966796875t0.331298828125,0.847900390625t0.50537109375,0.701904296875q0.55029296875-0.59521484375,0.814208984375-1.44873046875t0.4716796875-1.645263671875t0.4716796875-1.35888671875t0.814208984375-0.567138671875q0.34814453125,0,0.583984375,0.12353515625q-0.1123046875-0.28076171875-0.37060546875-0.544677734375t-0.578369140625-0.48291015625t-0.66259765625-0.359375t-0.645751953125-0.140380859375q-0.08984375,0-0.207763671875,0.028076171875t-0.185302734375,0.005615234375q-0.46044921875,0.134765625-0.758056640625,0.466064453125t-0.48291015625,0.780517578125t-0.263916015625,0.9208984375t-0.07861328125,0.88720703125z M143.19458496094,26.91796875q0-0.61767578125,0.117919921875-1.319580078125t0.404296875-1.285888671875t0.791748046875-0.9658203125t1.29150390625-0.3818359375q0.52783203125,0,1.02197265625,0.174072265625t0.93212890625,0.477294921875q0.134765625-0.224609375,0.4267578125-0.275146484375t0.5166015625-0.050537109375q0.08984375,0,0.252685546875,0.01123046875t0.320068359375,0.0673828125t0.275146484375,0.134765625t0.140380859375,0.224609375q0.08984375,0.7861328125,0.12353515625,1.566650390625t0.10107421875,1.555419921875q0.1123046875,1.44873046875,0.34814453125,2.86376953125t0.23583984375,2.86376953125q0,0.68505859375-0.061767578125,1.482421875t-0.32568359375,1.476806640625t-0.769287109375,1.128662109375t-1.40380859375,0.44921875q-0.80859375,0-1.240966796875-0.286376953125t-0.780517578125-0.960205078125q0.0224609375-0.224609375,0.286376953125-0.297607421875t0.454833984375-0.072998046875q0.1796875,0,0.364990234375,0.03369140625t0.297607421875,0.1123046875l0.28076171875,0.1796875q0.41552734375-0.853515625,0.50537109375-1.8642578125t0.08984375-1.9541015625q0-0.7861328125-0.07861328125-1.555419921875t-0.1572265625-1.544189453125q-0.7861328125,1.42626953125-2.39208984375,1.42626953125q-0.7412109375,0-1.207275390625-0.314453125t-0.71875-0.79736328125t-0.34814453125-1.08935546875t-0.095458984375-1.212890625z M144.57593261719,27.01904296875q0,0.28076171875,0.0224609375,0.724365234375t0.117919921875,0.870361328125t0.275146484375,0.735595703125t0.50537109375,0.308837890625q0.61767578125,0,0.97705078125-0.48291015625t0.567138671875-1.151123046875t0.331298828125-1.38134765625t0.314453125-1.173583984375q-0.0224609375-0.1572265625-0.0224609375-0.308837890625l0-0.308837890625q-0.25830078125-0.48291015625-0.75244140625-0.836669921875t-1.02197265625-0.477294921875q-0.0673828125-0.01123046875-0.12353515625-0.01123046875q-0.314453125,0-0.5166015625,0.37060546875q-0.25830078125,0.44921875-0.404296875,1.072509765625t-0.207763671875,1.229736328125t-0.061767578125,0.81982421875z M152.5683203125,27.5244140625q0-0.64013671875,0.162841796875-1.319580078125t0.5166015625-1.22412109375t0.892822265625-0.88720703125t1.302734375-0.342529296875q0.57275390625,0,1.207275390625,0.196533203125t1.162353515625,0.5615234375t0.859130859375,0.892822265625t0.331298828125,1.17919921875q0,0.7861328125-0.286376953125,1.49365234375t-0.802978515625,1.263427734375t-1.207275390625,0.8759765625t-1.499267578125,0.320068359375q-0.66259765625,0-1.15673828125-0.241455078125t-0.825439453125-0.645751953125t-0.494140625-0.95458984375t-0.162841796875-1.16796875z M154.21919921875,27.501953125q0,0.2021484375,0.061767578125,0.59521484375t0.185302734375,0.769287109375t0.320068359375,0.6513671875t0.477294921875,0.252685546875q0.59521484375-0.0673828125,0.982666015625-0.387451171875t0.62890625-0.780517578125t0.3369140625-0.99951171875t0.095458984375-1.02197265625q0-0.61767578125-0.241455078125-1.033203125t-0.791748046875-0.673828125q0,0.0224609375,0.0224609375,0.0224609375t0.0224609375-0.0224609375l-0.28076171875-0.0673828125q-0.1123046875-0.044921875-0.275146484375-0.10107421875t-0.320068359375-0.2470703125q-0.43798828125,0.1572265625-0.679443359375,0.404296875t-0.364990234375,0.600830078125t-0.151611328125,0.847900390625t-0.028076171875,1.1904296875z M161.07730957031,24.41357421875q0-0.46044921875,0.26953125-0.791748046875t0.656982421875-0.5390625t0.847900390625-0.308837890625t0.853515625-0.10107421875q0.30322265625,0,0.80859375,0.08984375t0.98828125,0.26953125t0.836669921875,0.4716796875t0.353759765625,0.68505859375q0,0.1796875-0.134765625,0.320068359375t-0.28076171875,0.140380859375q-0.30322265625,0-0.55029296875-0.196533203125t-0.510986328125-0.41552734375t-0.578369140625-0.41552734375t-0.70751953125-0.196533203125t-0.713134765625,0.252685546875t-0.320068359375,0.668212890625q0,0.68505859375,0.48291015625,1.342041015625t1.061279296875,1.38134765625t1.061279296875,1.521728515625t0.48291015625,1.76318359375q0,0.41552734375-0.174072265625,0.701904296875t-0.46044921875,0.466064453125t-0.645751953125,0.275146484375t-0.6962890625,0.095458984375q-0.37060546875,0-0.86474609375-0.174072265625t-0.93212890625-0.46044921875t-0.735595703125-0.668212890625t-0.297607421875-0.79736328125q0-0.2021484375,0.286376953125-0.25830078125t0.421142578125-0.05615234375q0.0673828125,0,0.207763671875,0.044921875t0.275146484375,0.10107421875t0.241455078125,0.12353515625t0.084228515625,0.14599609375q0.1123046875,0.134765625,0.342529296875,0.398681640625t0.46044921875,0.4267578125t0.404296875,0.117919921875t0.174072265625-0.50537109375q0-0.8759765625-0.4716796875-1.611572265625t-1.027587890625-1.4375t-1.027587890625-1.392578125t-0.4716796875-1.476806640625z M168.76647460938,27.5244140625q0-0.64013671875,0.162841796875-1.319580078125t0.5166015625-1.22412109375t0.892822265625-0.88720703125t1.302734375-0.342529296875q0.57275390625,0,1.207275390625,0.196533203125t1.162353515625,0.5615234375t0.859130859375,0.892822265625t0.331298828125,1.17919921875q0,0.7861328125-0.286376953125,1.49365234375t-0.802978515625,1.263427734375t-1.207275390625,0.8759765625t-1.499267578125,0.320068359375q-0.66259765625,0-1.15673828125-0.241455078125t-0.825439453125-0.645751953125t-0.494140625-0.95458984375t-0.162841796875-1.16796875z M170.41735351563,27.501953125q0,0.2021484375,0.061767578125,0.59521484375t0.185302734375,0.769287109375t0.320068359375,0.6513671875t0.477294921875,0.252685546875q0.59521484375-0.0673828125,0.982666015625-0.387451171875t0.62890625-0.780517578125t0.3369140625-0.99951171875t0.095458984375-1.02197265625q0-0.61767578125-0.241455078125-1.033203125t-0.791748046875-0.673828125q0,0.0224609375,0.0224609375,0.0224609375t0.0224609375-0.0224609375l-0.28076171875-0.0673828125q-0.1123046875-0.044921875-0.275146484375-0.10107421875t-0.320068359375-0.2470703125q-0.43798828125,0.1572265625-0.679443359375,0.404296875t-0.364990234375,0.600830078125t-0.151611328125,0.847900390625t-0.028076171875,1.1904296875z M175.38312988281,39.322021484375q0.039306640625-0.162841796875,0.162841796875-0.252685546875t0.404296875-0.08984375q0.30322265625,0,0.57275390625,0.1796875t0.39306640625,0.43798828125q0.39306640625-0.61767578125,0.61767578125-1.4375t0.342529296875-1.70703125t0.140380859375-1.746337890625t0.0224609375-1.577880859375q0-2.25732421875,0.05615234375-4.43603515625t0.1796875-4.43603515625q0-0.1572265625,0.134765625-0.263916015625t0.308837890625-0.162841796875t0.359375-0.07861328125t0.320068359375-0.0224609375q0.25830078125,0,0.50537109375,0.0673828125t0.46044921875,0.2021484375l0.134765625,0.25830078125q-0.0224609375,1.60595703125-0.08984375,3.206298828125t-0.0673828125,3.183837890625q0,0.61767578125,0.0224609375,1.6171875q0.01123046875,0.32568359375,0.01123046875,0.673828125q0,0.6962890625-0.03369140625,1.4599609375q-0.044921875,1.1455078125-0.196533203125,2.307861328125t-0.494140625,2.105712890625t-0.93212890625,1.544189453125t-1.488037109375,0.600830078125q-0.39306640625,0-0.735595703125-0.095458984375t-0.612060546875-0.364990234375q-0.25830078125-0.224609375-0.37060546875-0.48291015625q-0.0673828125-0.1572265625-0.117919921875-0.342529296875t-0.01123046875-0.34814453125z M178.56696777344,21.35888671875l0-0.690673828125t0.07861328125-0.6064453125t0.297607421875-0.4267578125t0.634521484375-0.162841796875q0.1572265625,0,0.320068359375,0.0224609375t0.308837890625,0.08984375l0.2470703125,0.28076171875q0,0.32568359375,0.01123046875,0.71875l0,0.08984375q0,0.3369140625-0.0673828125,0.62890625q-0.07861328125,0.34814453125-0.286376953125,0.589599609375t-0.645751953125,0.241455078125q-0.34814453125,0-0.52783203125-0.10107421875t-0.34814453125-0.4267578125z M182.5725390625,27.5244140625q0-0.64013671875,0.162841796875-1.319580078125t0.5166015625-1.22412109375t0.892822265625-0.88720703125t1.302734375-0.342529296875q0.57275390625,0,1.207275390625,0.196533203125t1.162353515625,0.5615234375t0.859130859375,0.892822265625t0.331298828125,1.17919921875q0,0.7861328125-0.286376953125,1.49365234375t-0.802978515625,1.263427734375t-1.207275390625,0.8759765625t-1.499267578125,0.320068359375q-0.66259765625,0-1.15673828125-0.241455078125t-0.825439453125-0.645751953125t-0.494140625-0.95458984375t-0.162841796875-1.16796875z M184.22341796875,27.501953125q0,0.2021484375,0.061767578125,0.59521484375t0.185302734375,0.769287109375t0.320068359375,0.6513671875t0.477294921875,0.252685546875q0.59521484375-0.0673828125,0.982666015625-0.387451171875t0.62890625-0.780517578125t0.3369140625-0.99951171875t0.095458984375-1.02197265625q0-0.61767578125-0.241455078125-1.033203125t-0.791748046875-0.673828125q0,0.0224609375,0.0224609375,0.0224609375t0.0224609375-0.0224609375l-0.28076171875-0.0673828125q-0.1123046875-0.044921875-0.275146484375-0.10107421875t-0.320068359375-0.2470703125q-0.43798828125,0.1572265625-0.679443359375,0.404296875t-0.364990234375,0.600830078125t-0.151611328125,0.847900390625t-0.028076171875,1.1904296875z M191.08152832031,24.41357421875q0-0.46044921875,0.26953125-0.791748046875t0.656982421875-0.5390625t0.847900390625-0.308837890625t0.853515625-0.10107421875q0.30322265625,0,0.80859375,0.08984375t0.98828125,0.26953125t0.836669921875,0.4716796875t0.353759765625,0.68505859375q0,0.1796875-0.134765625,0.320068359375t-0.28076171875,0.140380859375q-0.30322265625,0-0.55029296875-0.196533203125t-0.510986328125-0.41552734375t-0.578369140625-0.41552734375t-0.70751953125-0.196533203125t-0.713134765625,0.252685546875t-0.320068359375,0.668212890625q0,0.68505859375,0.48291015625,1.342041015625t1.061279296875,1.38134765625t1.061279296875,1.521728515625t0.48291015625,1.76318359375q0,0.41552734375-0.174072265625,0.701904296875t-0.46044921875,0.466064453125t-0.645751953125,0.275146484375t-0.6962890625,0.095458984375q-0.37060546875,0-0.86474609375-0.174072265625t-0.93212890625-0.46044921875t-0.735595703125-0.668212890625t-0.297607421875-0.79736328125q0-0.2021484375,0.286376953125-0.25830078125t0.421142578125-0.05615234375q0.0673828125,0,0.207763671875,0.044921875t0.275146484375,0.10107421875t0.241455078125,0.12353515625t0.084228515625,0.14599609375q0.1123046875,0.134765625,0.342529296875,0.398681640625t0.46044921875,0.4267578125t0.404296875,0.117919921875t0.174072265625-0.50537109375q0-0.8759765625-0.4716796875-1.611572265625t-1.027587890625-1.4375t-1.027587890625-1.392578125t-0.4716796875-1.476806640625z"/><path fill="#" d=""/></svg>
